<svg xmlns="http://www.w3.org/2000/svg" viewBox="0 0 64 64">
  <rect width="64" height="64" rx="14" fill="#2a78d6"/>
  <path
    d="M17 22.5h30a6 6 0 0 1 6 6v13a6 6 0 0 1-6 6H17a6 6 0 0 1-6-6v-13a6 6 0 0 1 6-6Z"
    fill="none"
    stroke="#fff"
    stroke-width="5"
    stroke-linejoin="round"
  />
  <path
    d="M19 22.5V18a5 5 0 0 1 5-5h20"
    fill="none"
    stroke="#fff"
    stroke-width="5"
    stroke-linecap="round"
  />
  <circle cx="45" cy="35" r="4" fill="#fff"/>
  <path
    d="M22 39V29M31 39V25M40 39v-7"
    fill="none"
    stroke="#fff"
    stroke-width="4"
    stroke-linecap="round"
  />
</svg>
